<svg width="100" height="100" viewBox="0 0 100 100" fill="none" xmlns="http://www.w3.org/2000/svg">
<ellipse cx="49.5" cy="49.234" rx="7.5" ry="7.17" fill="#149ECA"/>
<path d="M50 65.42C36.3133 65.42 23.9859 63.5084 15.1328 60.4616C10.699 58.9356 7.21833 57.1526 4.87597 55.2467C2.5217 53.331 1.5 51.4519 1.5 49.712C1.5 47.9721 2.52171 46.093 4.87597 44.1774C7.21833 42.2714 10.699 40.4884 15.1328 38.9625C23.9859 35.9156 36.3133 34.004 50 34.004C63.6867 34.004 76.0141 35.9156 84.8672 38.9625C89.301 40.4884 92.7817 42.2714 95.124 44.1774C97.4783 46.093 98.5 47.9721 98.5 49.712C98.5 51.4519 97.4783 53.331 95.124 55.2467C92.7817 57.1526 89.301 58.9356 84.8672 60.4616C76.0141 63.5084 63.6867 65.42 50 65.42Z" stroke="#149ECA" stroke-width="3"/>
<path d="M63.8637 57.8792C57.0271 69.1994 49.1419 78.4364 41.9691 84.2315C38.3776 87.133 35.0307 89.1181 32.1394 90.1022C29.2436 91.0878 26.9961 91.0129 25.3639 90.112C23.7317 89.2111 22.54 87.3878 21.985 84.4975C21.4309 81.6117 21.5556 77.8482 22.3884 73.424C24.0516 64.5879 28.4767 53.4411 35.3132 42.1208C42.1498 30.8006 50.035 21.5636 57.2079 15.7685C60.7993 12.867 64.1462 10.8819 67.0375 9.89781C69.9333 8.91216 72.1808 8.98712 73.813 9.88801C75.4452 10.7889 76.6369 12.6122 77.1919 15.5025C77.746 18.3883 77.6213 22.1518 76.7885 26.576C75.1253 35.4121 70.7002 46.5589 63.8637 57.8792Z" stroke="#149ECA" stroke-width="3"/>
<path d="M64.8637 42.1209C71.7002 53.4411 76.1253 64.5879 77.7885 73.424C78.6213 77.8482 78.746 81.6117 78.1919 84.4975C77.6369 87.3878 76.4452 89.2111 74.813 90.112C73.1808 91.0129 70.9333 91.0879 68.0375 90.1022C65.1462 89.1181 61.7993 87.1331 58.2079 84.2315C51.035 78.4364 43.1498 69.1994 36.3132 57.8792C29.4767 46.5589 25.0516 35.4121 23.3884 26.576C22.5556 22.1518 22.4309 18.3883 22.985 15.5025C23.54 12.6122 24.7317 10.7889 26.3639 9.88802C27.9961 8.98713 30.2436 8.91217 33.1394 9.89782C36.0307 10.8819 39.3776 12.867 42.9691 15.7685C50.1419 21.5636 58.0271 30.8006 64.8637 42.1209Z" stroke="#149ECA" stroke-width="3"/>
</svg>
